<svg width="34" height="34" viewBox="0 0 34 34" fill="none" xmlns="http://www.w3.org/2000/svg">
<path d="M9.80831 16.8203C4.20312 16.8203 4.20312 19.3289 4.20312 22.426V23.8274C4.20312 27.6953 4.20312 30.8345 11.2096 30.8345H22.42C28.0252 30.8345 29.4265 27.6953 29.4265 23.8274V22.426C29.4265 19.3289 29.4265 16.8203 23.8213 16.8203C22.42 16.8203 22.0276 17.1146 21.299 17.6612L19.8696 19.1747C18.2161 20.9405 15.4135 20.9405 13.746 19.1747L12.3307 17.6612C11.602 17.1146 11.2096 16.8203 9.80831 16.8203Z" stroke="black" stroke-width="2.51936" stroke-miterlimit="10" stroke-linecap="round" stroke-linejoin="round"/>
<path d="M26.624 16.8189V8.41037C26.624 5.31323 26.624 2.80469 21.0188 2.80469H12.611C7.00586 2.80469 7.00586 5.31323 7.00586 8.41037V16.8189" stroke="black" stroke-width="2.51936" stroke-miterlimit="10" stroke-linecap="round" stroke-linejoin="round"/>
</svg>
