<svg width="34" height="34" viewBox="0 0 34 34" fill="none" xmlns="http://www.w3.org/2000/svg">
<path d="M29.5397 12.0261V21.6118C29.5397 23.1813 28.6989 24.6389 27.3397 25.4377L19.016 30.2446C17.6567 31.0294 15.9751 31.0294 14.6019 30.2446L6.27816 25.4377C4.9189 24.6529 4.07812 23.1954 4.07812 21.6118V12.0261C4.07812 10.4565 4.9189 8.99896 6.27816 8.20015L14.6019 3.39328C15.9611 2.60849 17.6427 2.60849 19.016 3.39328L27.3397 8.20015C28.6989 8.99896 29.5397 10.4425 29.5397 12.0261Z" stroke="black" stroke-width="2.09947" stroke-linecap="round" stroke-linejoin="round"/>
<path d="M16.8158 15.4134C18.619 15.4134 20.0808 13.9514 20.0808 12.1481C20.0808 10.3447 18.619 8.88281 16.8158 8.88281C15.0126 8.88281 13.5508 10.3447 13.5508 12.1481C13.5508 13.9514 15.0126 15.4134 16.8158 15.4134Z" stroke="black" stroke-width="2.09947" stroke-linecap="round" stroke-linejoin="round"/>
<path d="M22.4213 23.342C22.4213 20.8194 19.913 18.7734 16.8161 18.7734C13.7193 18.7734 11.2109 20.8194 11.2109 23.342" stroke="black" stroke-width="2.09947" stroke-linecap="round" stroke-linejoin="round"/>
</svg>
