<svg width="255" height="247" viewBox="0 0 255 247" fill="none" xmlns="http://www.w3.org/2000/svg">
<g filter="url(#filter0_f_3979_4115)">
<path d="M38.7066 76.2101C73.6057 34.1204 136.017 28.2913 178.107 63.1903C220.197 98.0894 226.026 160.501 191.127 202.591C156.228 244.68 113.054 214.499 92.2576 166.728C129.201 90.8391 3.80758 118.3 38.7066 76.2101Z" fill="#FF3877"/>
</g>
<path d="M31.2867 82.8859C66.1858 40.7962 128.597 34.967 170.687 69.8661C212.777 104.765 218.606 167.177 183.707 209.267C156.193 242.449 123.536 230.712 100.756 200.851C88.5181 184.808 95.0934 162.533 91.1751 142.739C83.6762 104.858 2.33894 117.798 31.2867 82.8859Z" fill="#007E70"/>
<defs>
<filter id="filter0_f_3979_4115" x="28.5039" y="36.3984" width="189.416" height="190.219" filterUnits="userSpaceOnUse" color-interpolation-filters="sRGB">
<feFlood flood-opacity="0" result="BackgroundImageFix"/>
<feBlend mode="normal" in="SourceGraphic" in2="BackgroundImageFix" result="shape"/>
<feGaussianBlur stdDeviation="2" result="effect1_foregroundBlur_3979_4115"/>
</filter>
</defs>
</svg>
